<mxfile modified="2024-02-22T15:40:24.629Z" host="app.diagrams.net" agent="Mozilla/5.0 (Macintosh; Intel Mac OS X 10_15_7) AppleWebKit/537.36 (KHTML, like Gecko) Chrome/121.0.0.0 Safari/537.36" etag="0fD_spqfFD6GfCSk5Fqc" version="23.1.4" type="github">
  <diagram id="l8hXMBHkgcEJcSW0mbfh" name="Page-1">
    <mxGraphModel dx="931" dy="472" grid="1" gridSize="10" guides="1" tooltips="1" connect="1" arrows="1" fold="1" page="1" pageScale="1" pageWidth="1169" pageHeight="827" math="0" shadow="0">
      <root>
        <mxCell id="0" />
        <mxCell id="1" parent="0" />
        <mxCell id="q4_jqNzo_KNEZYcQUHUx-26" style="edgeStyle=none;rounded=0;orthogonalLoop=1;jettySize=auto;html=1;strokeColor=#FF9933;endArrow=none;endFill=0;strokeWidth=2;exitX=0.5;exitY=0.66;exitDx=0;exitDy=0;exitPerimeter=0;entryX=0.838;entryY=-0.01;entryDx=0;entryDy=0;entryPerimeter=0;" edge="1" parent="1" source="q4_jqNzo_KNEZYcQUHUx-21" target="q4_jqNzo_KNEZYcQUHUx-23">
          <mxGeometry relative="1" as="geometry">
            <mxPoint x="530" y="240" as="sourcePoint" />
            <mxPoint x="530" y="230" as="targetPoint" />
          </mxGeometry>
        </mxCell>
        <mxCell id="q4_jqNzo_KNEZYcQUHUx-20" value="Xfinity Broadband" style="shape=mxgraph.cisco.modems_and_phones.cable_modem;sketch=0;html=1;pointerEvents=1;dashed=0;fillColor=#036897;strokeColor=#ffffff;strokeWidth=2;verticalLabelPosition=top;verticalAlign=bottom;align=center;outlineConnect=0;" vertex="1" parent="1">
          <mxGeometry x="420" y="170" width="74" height="35" as="geometry" />
        </mxCell>
        <mxCell id="q4_jqNzo_KNEZYcQUHUx-21" value="T-Mobile LTE" style="shape=mxgraph.cisco.modems_and_phones.rf_modem;sketch=0;html=1;pointerEvents=1;dashed=0;fillColor=#036897;strokeColor=#ffffff;strokeWidth=2;verticalLabelPosition=top;verticalAlign=bottom;align=center;outlineConnect=0;" vertex="1" parent="1">
          <mxGeometry x="529" y="170" width="82" height="42" as="geometry" />
        </mxCell>
        <mxCell id="q4_jqNzo_KNEZYcQUHUx-22" value="AP&lt;br style=&quot;border-color: var(--border-color);&quot;&gt;2.4 Mhz SSID: La2uli&lt;br style=&quot;border-color: var(--border-color);&quot;&gt;5 MHz SSID: La5uli" style="shape=mxgraph.cisco.misc.dual_mode;sketch=0;html=1;pointerEvents=1;dashed=0;fillColor=#036897;strokeColor=#ffffff;strokeWidth=2;verticalLabelPosition=bottom;verticalAlign=top;align=center;outlineConnect=0;" vertex="1" parent="1">
          <mxGeometry x="710" y="400" width="75" height="54" as="geometry" />
        </mxCell>
        <mxCell id="q4_jqNzo_KNEZYcQUHUx-32" value="" style="edgeStyle=none;rounded=1;orthogonalLoop=1;jettySize=auto;html=1;endArrow=none;endFill=0;fillColor=#6a00ff;strokeColor=#3700CC;curved=0;shadow=1;" edge="1" parent="1" source="q4_jqNzo_KNEZYcQUHUx-23" target="q4_jqNzo_KNEZYcQUHUx-30">
          <mxGeometry relative="1" as="geometry" />
        </mxCell>
        <mxCell id="q4_jqNzo_KNEZYcQUHUx-33" value="Eth1(Trunk)" style="edgeLabel;html=1;align=center;verticalAlign=middle;resizable=0;points=[];" vertex="1" connectable="0" parent="q4_jqNzo_KNEZYcQUHUx-32">
          <mxGeometry x="0.3032" relative="1" as="geometry">
            <mxPoint y="5" as="offset" />
          </mxGeometry>
        </mxCell>
        <mxCell id="q4_jqNzo_KNEZYcQUHUx-23" value="Firewall Router with NIDS" style="shape=mxgraph.cisco.misc.asa_5500;sketch=0;html=1;pointerEvents=1;dashed=0;fillColor=#036897;strokeColor=#ffffff;strokeWidth=2;verticalLabelPosition=bottom;verticalAlign=top;align=center;outlineConnect=0;" vertex="1" parent="1">
          <mxGeometry x="470" y="260" width="59" height="67" as="geometry" />
        </mxCell>
        <mxCell id="q4_jqNzo_KNEZYcQUHUx-24" style="edgeStyle=none;rounded=0;orthogonalLoop=1;jettySize=auto;html=1;exitX=0.5;exitY=1;exitDx=0;exitDy=0;exitPerimeter=0;strokeColor=#FF9933;endArrow=none;endFill=0;strokeWidth=2;" edge="1" parent="1" source="q4_jqNzo_KNEZYcQUHUx-20" target="q4_jqNzo_KNEZYcQUHUx-23">
          <mxGeometry relative="1" as="geometry" />
        </mxCell>
        <mxCell id="q4_jqNzo_KNEZYcQUHUx-27" style="edgeStyle=none;rounded=1;orthogonalLoop=1;jettySize=auto;html=1;exitX=1;exitY=0.5;exitDx=0;exitDy=0;exitPerimeter=0;entryX=0;entryY=0.5;entryDx=0;entryDy=0;entryPerimeter=0;endArrow=none;endFill=0;strokeColor=#FFFF33;strokeWidth=2;curved=0;shadow=1;" edge="1" parent="1" source="q4_jqNzo_KNEZYcQUHUx-30" target="q4_jqNzo_KNEZYcQUHUx-22">
          <mxGeometry relative="1" as="geometry" />
        </mxCell>
        <mxCell id="q4_jqNzo_KNEZYcQUHUx-31" value="Eth8" style="edgeLabel;html=1;align=center;verticalAlign=middle;resizable=0;points=[];" vertex="1" connectable="0" parent="q4_jqNzo_KNEZYcQUHUx-27">
          <mxGeometry x="-0.7053" relative="1" as="geometry">
            <mxPoint as="offset" />
          </mxGeometry>
        </mxCell>
        <mxCell id="q4_jqNzo_KNEZYcQUHUx-28" style="edgeStyle=none;rounded=0;orthogonalLoop=1;jettySize=auto;html=1;exitX=0.99;exitY=0;exitDx=0;exitDy=0;exitPerimeter=0;" edge="1" parent="1" source="q4_jqNzo_KNEZYcQUHUx-23" target="q4_jqNzo_KNEZYcQUHUx-23">
          <mxGeometry relative="1" as="geometry" />
        </mxCell>
        <mxCell id="q4_jqNzo_KNEZYcQUHUx-30" value="R2" style="shape=mxgraph.cisco.routers.router;sketch=0;html=1;pointerEvents=1;dashed=0;fillColor=#036897;strokeColor=#ffffff;strokeWidth=2;verticalLabelPosition=bottom;verticalAlign=top;align=center;outlineConnect=0;" vertex="1" parent="1">
          <mxGeometry x="460.5" y="401" width="78" height="53" as="geometry" />
        </mxCell>
      </root>
    </mxGraphModel>
  </diagram>
</mxfile>
